<?xml version="1.0" encoding="utf-8"?>
<!-- Generator: Adobe Illustrator 16.0.4, SVG Export Plug-In . SVG Version: 6.00 Build 0)  -->
<!DOCTYPE svg PUBLIC "-//W3C//DTD SVG 1.1//EN" "http://www.w3.org/Graphics/SVG/1.1/DTD/svg11.dtd">
<svg version="1.1" id="Capa_1" xmlns="http://www.w3.org/2000/svg" xmlns:xlink="http://www.w3.org/1999/xlink" x="0px" y="0px"
	 width="20.971px" height="20.846px" viewBox="0 0 20.971 20.846" enable-background="new 0 0 20.971 20.846" xml:space="preserve">
<path fill="#231F20" d="M14.281,13.103l1.723,1.672c0,0-2.113,3.057-4.373,3.119c0.049,0,0.012-8.608,0.004-10.694
	c1.504-0.491,2.6-1.861,2.6-3.492c-0.001-2.048-1.71-3.707-3.816-3.707C8.309,0.001,6.6,1.66,6.6,3.707
	c0,1.604,1.062,2.961,2.533,3.476l0.01,10.674c-2.727-0.188-4.305-2.812-4.305-2.812l1.842-1.783L0,12.275l1.012,6.479l1.777-1.719
	c1.539,1.24,3.277,3.811,7.459,3.811c5.254-0.133,6.467-2.961,7.814-4.074l1.945,1.895l0.961-6.541L14.281,13.103z M8.451,3.647
	c0-1.054,0.881-1.91,1.967-1.91s1.971,0.856,1.971,1.91c0,1.057-0.885,1.912-1.971,1.912S8.451,4.704,8.451,3.647z"/>
</svg>
