<?xml version="1.0" encoding="utf-8"?>
<!-- Generator: Adobe Illustrator 16.0.4, SVG Export Plug-In . SVG Version: 6.00 Build 0)  -->
<!DOCTYPE svg PUBLIC "-//W3C//DTD SVG 1.1//EN" "http://www.w3.org/Graphics/SVG/1.1/DTD/svg11.dtd">
<svg version="1.1" id="Capa_1" xmlns="http://www.w3.org/2000/svg" xmlns:xlink="http://www.w3.org/1999/xlink" x="0px" y="0px"
	 width="36.979px" height="47.691px" viewBox="0 0 36.979 47.691" enable-background="new 0 0 36.979 47.691" xml:space="preserve">
<path fill="#231F20" d="M0,0v36.977h11.633l6.854,10.715l6.854-10.715h11.637V0H0z M29.879,29.418v0.003l-2.121,1.377
	c-1.359,0.927-7.148,1.946-14.969-7.626c-7.537-9.223-5.336-14.3-4.312-15.467l1.76-1.812c0.416-0.347,1.037-0.3,1.388,0.124
	l4.58,5.473v0.003c0.336,0.4,0.319,1.023-0.123,1.395v0.004l-2.052,1.462c-0.812,0.797-0.114,2.06,0.705,3.282l3.904,4.657
	c1.818,1.772,2.814,2.594,3.689,2.014l1.705-1.882c0.418-0.347,1.034-0.301,1.389,0.124l4.58,5.469v0.007
	C30.336,28.424,30.318,29.046,29.879,29.418z"/>
</svg>
